<?xml version="1.0" encoding="UTF-8" standalone="no"?>
<!-- Created with Inkscape (http://www.inkscape.org/) -->

<svg
   xmlns:dc="http://purl.org/dc/elements/1.1/"
   xmlns:cc="http://creativecommons.org/ns#"
   xmlns:rdf="http://www.w3.org/1999/02/22-rdf-syntax-ns#"
   xmlns:svg="http://www.w3.org/2000/svg"
   xmlns="http://www.w3.org/2000/svg"
   xmlns:sodipodi="http://sodipodi.sourceforge.net/DTD/sodipodi-0.dtd"
   xmlns:inkscape="http://www.inkscape.org/namespaces/inkscape"
   width="38"
   height="42"
   viewBox="0 0 38 42.000001"
   id="svg4797"
   version="1.1"
   inkscape:version="0.91 r13725"
   sodipodi:docname="oval.svg">
  <defs
     id="defs4799" />
  <sodipodi:namedview
     id="base"
     pagecolor="#ffffff"
     bordercolor="#666666"
     borderopacity="1.0"
     inkscape:pageopacity="0.0"
     inkscape:pageshadow="2"
     inkscape:zoom="7.9195959"
     inkscape:cx="47.042516"
     inkscape:cy="4.5045351"
     inkscape:document-units="px"
     inkscape:current-layer="layer1"
     showgrid="false"
     units="px"
     inkscape:window-width="1920"
     inkscape:window-height="1027"
     inkscape:window-x="-8"
     inkscape:window-y="-8"
     inkscape:window-maximized="1" />
  <metadata
     id="metadata4802">
    <rdf:RDF>
      <cc:Work
         rdf:about="">
        <dc:format>image/svg+xml</dc:format>
        <dc:type
           rdf:resource="http://purl.org/dc/dcmitype/StillImage" />
        <dc:title></dc:title>
      </cc:Work>
    </rdf:RDF>
  </metadata>
  <g
     inkscape:label="Layer 1"
     inkscape:groupmode="layer"
     id="layer1"
     transform="translate(0,-1010.3622)">
    <path
       inkscape:connector-curvature="0"
       style="fill:#000000;fill-opacity:1;stroke:none;stroke-opacity:1"
       d="m 19,1013.0028 a 11.1875,8.0312519 0 0 0 -11.1875,8.0313 11.1875,8.0312519 0 0 0 0.0156,0.3437 l -0.0156,0 0,20 0.0215,0 a 11.1875,8.0312519 0 0 0 -0.0215,0.3125 11.1875,8.0312519 0 0 0 11.1875,8.0313 11.1875,8.0312519 0 0 0 11.1875,-8.0313 11.1875,8.0312519 0 0 0 -0.0156,-0.3125 l 0.0156,0 0,-20 -0.0234,0 a 11.1875,8.0312519 0 0 0 0.0234,-0.3437 A 11.1875,8.0312519 0 0 0 19,1013.0028 Z m 0,3.625 a 7.25,4.8125014 0 0 1 7.24609,4.75 l 0.004,0 0,20 -0.004,0 a 7.25,4.8125014 0 0 1 -7.24609,4.75 7.25,4.8125014 0 0 1 -7.24609,-4.75 l -0.004,0 0,-20 0.004,0 A 7.25,4.8125014 0 0 1 19,1016.6278 Z"
       id="path4467-2" />
  </g>
</svg>
