<?xml version="1.0" encoding="UTF-8" standalone="no"?>
<!-- Created with Inkscape (http://www.inkscape.org/) -->

<svg
   xmlns:dc="http://purl.org/dc/elements/1.1/"
   xmlns:cc="http://creativecommons.org/ns#"
   xmlns:rdf="http://www.w3.org/1999/02/22-rdf-syntax-ns#"
   xmlns:svg="http://www.w3.org/2000/svg"
   xmlns="http://www.w3.org/2000/svg"
   xmlns:sodipodi="http://sodipodi.sourceforge.net/DTD/sodipodi-0.dtd"
   xmlns:inkscape="http://www.inkscape.org/namespaces/inkscape"
   width="38"
   height="42"
   viewBox="0 0 38 42.000001"
   id="svg4797"
   version="1.1"
   inkscape:version="0.91 r13725"
   sodipodi:docname="circle.svg">
  <defs
     id="defs4799" />
  <sodipodi:namedview
     id="base"
     pagecolor="#ffffff"
     bordercolor="#666666"
     borderopacity="1.0"
     inkscape:pageopacity="0.0"
     inkscape:pageshadow="2"
     inkscape:zoom="7.9195959"
     inkscape:cx="47.042516"
     inkscape:cy="4.5045351"
     inkscape:document-units="px"
     inkscape:current-layer="layer1"
     showgrid="false"
     units="px"
     inkscape:window-width="1920"
     inkscape:window-height="1027"
     inkscape:window-x="-8"
     inkscape:window-y="-8"
     inkscape:window-maximized="1" />
  <metadata
     id="metadata4802">
    <rdf:RDF>
      <cc:Work
         rdf:about="">
        <dc:format>image/svg+xml</dc:format>
        <dc:type
           rdf:resource="http://purl.org/dc/dcmitype/StillImage" />
        <dc:title></dc:title>
      </cc:Work>
    </rdf:RDF>
  </metadata>
  <g
     inkscape:label="Layer 1"
     inkscape:groupmode="layer"
     id="layer1"
     transform="translate(0,-1010.3622)">
    <path
       inkscape:connector-curvature="0"
       style="fill:#000000;stroke:none"
       d="m 18.999999,1017.5673 a 13.826463,13.794895 0 0 0 -13.8261725,13.7949 13.826463,13.794895 0 0 0 13.8261725,13.7949 13.826463,13.794895 0 0 0 13.826175,-13.7949 13.826463,13.794895 0 0 0 -13.826175,-13.7949 z m 0,3.6621 a 10.16466,10.133095 0 0 1 10.166016,10.1328 10.16466,10.133095 0 0 1 -10.166016,10.1328 10.16466,10.133095 0 0 1 -10.1640635,-10.1328 10.16466,10.133095 0 0 1 10.1640635,-10.1328 z"
       id="path4228" />
  </g>
</svg>
